<?xml version="1.0" encoding="UTF-8"?>
<svg width="22px" height="22px" viewBox="0 0 22 22" version="1.1" xmlns="http://www.w3.org/2000/svg" xmlns:xlink="http://www.w3.org/1999/xlink">
    <title>编组 6</title>
    <defs>
        <filter id="filter-1">
            <feColorMatrix in="SourceGraphic" type="matrix" values="0 0 0 0 0.223529 0 0 0 0 0.223529 0 0 0 0 0.223529 0 0 0 1.000000 0"></feColorMatrix>
        </filter>
    </defs>
    <g id="页面-1" stroke="none" stroke-width="1" fill="none" fill-rule="evenodd">
        <g id="住户管理-楼栋" transform="translate(-12.000000, -60.000000)">
            <g id="编组-6" transform="translate(0.000000, 44.000000)" filter="url(#filter-1)">
                <g transform="translate(12.000000, 16.000000)">
                    <rect id="bg备份" x="0" y="0" width="22" height="22"></rect>
                    <path d="M14.7933223,5.13327338 L8.41220456,11.1124893 C8.20695324,11.3048194 8.19009181,11.6342043 8.37452321,11.8482264 L8.37452319,11.8482263 C8.38640516,11.8620068 8.39898338,11.8751167 8.41220453,11.8875003 L14.7933223,17.8667338 C15.04936,18.1066282 15.0703821,18.5175295 14.8403187,18.7844906 C14.6102553,19.0514693 14.216193,19.0733896 13.9601552,18.8334952 L7.57903747,12.8542793 L7.57903732,12.8542792 C7.53283497,12.8109872 7.48888104,12.765155 7.44736317,12.7169783 C6.80278812,11.969034 6.86174419,10.8178466 7.57903732,10.1457277 L13.9601551,4.16651178 C14.2161928,3.92659982 14.6102551,3.94853774 14.8403185,4.21551642 C15.0703819,4.48247754 15.0493599,4.89337881 14.7933221,5.13327321 L14.7933223,5.13327338 Z" id="路径备份" fill="#FFFFFF" fill-rule="nonzero"></path>
                </g>
            </g>
        </g>
    </g>
</svg>