<?xml version="1.0" encoding="UTF-8"?>
<svg width="18px" height="18px" viewBox="0 0 18 18" version="1.1" xmlns="http://www.w3.org/2000/svg" xmlns:xlink="http://www.w3.org/1999/xlink">
    <title>编组</title>
    <defs>
        <filter id="filter-1">
            <feColorMatrix in="SourceGraphic" type="matrix" values="0 0 0 0 0.298039 0 0 0 0 0.564706 0 0 0 0 0.960784 0 0 0 1.000000 0"></feColorMatrix>
        </filter>
    </defs>
    <g id="页面-1" stroke="none" stroke-width="1" fill="none" fill-rule="evenodd">
        <g id="住户管理-楼栋" transform="translate(-147.000000, -119.000000)">
            <g id="编组" transform="translate(147.000000, 117.000000)" filter="url(#filter-1)">
                <g transform="translate(0.000000, 2.000000)">
                    <path d="M15.4264158,2.94444084 C15.8404096,2.94444084 16.1810409,3.00932649 16.4504914,3.13970423 C16.7189419,3.27008194 16.9327569,3.43285919 17.0905727,3.62812257 C17.2495703,3.82286617 17.3600232,4.03450257 17.4220222,4.26268524 C17.4839304,4.49052139 17.514839,4.70198454 17.514839,4.8972479 C17.514839,4.98881552 17.5118391,5.06002515 17.5046574,5.11217622 C17.4973848,5.16380753 17.4943848,5.2100678 17.4943848,5.24844476 L17.4943848,5.36591466 L16.1295871,5.36591466 L16.1295871,15.6173288 C16.1295871,15.8781709 16.0747697,16.1289639 15.9644078,16.3699678 C15.8539549,16.6100187 15.6949573,16.8225214 15.4884149,17.0045305 C15.2819635,17.1864529 15.0300581,17.3330303 14.7337899,17.4431367 C14.4374307,17.5544559 14.0968903,17.6094658 13.7106234,17.6094658 L4.48867079,17.6094658 C4.13031253,17.6094658 3.79277214,17.5573147 3.47477692,17.4530125 C3.15796349,17.3487103 2.88651301,17.2021329 2.65824371,17.0131935 C2.43115621,16.8254669 2.25143164,16.5971109 2.12152448,16.3304647 C1.99034464,16.0628655 1.92434563,15.7609609 1.92434563,15.4224986 L1.92434563,5.36600131 L0.643001206,5.36600131 C0.628546874,5.3528336 0.622365144,5.32034744 0.622365144,5.26819636 C0.607819903,5.20322408 0.601638191,5.00155009 0.601638191,4.66308779 C0.601638191,4.49389995 0.642910297,4.30504716 0.725545418,4.0964428 C0.808089629,3.88853148 0.931996874,3.69612689 1.09717621,3.52104822 C1.26235554,3.34484338 1.47607962,3.1982659 1.73825749,3.08122915 C2.00043539,2.96419241 2.31024892,2.90571736 2.66842535,2.90571736 L4.50903411,2.90571736 L4.50903413,1.71473202 C4.50903413,1.37583656 4.63303226,1.08614679 4.88075582,0.84505629 C5.12947937,0.604485563 5.43202028,0.48398363 5.79119671,0.48398363 L12.2630996,0.48398363 C12.7451833,0.48398363 13.0796328,0.604485563 13.2655391,0.84505629 C13.4512636,1.08606016 13.5451713,1.37574994 13.5451713,1.71473202 L13.5451713,2.92477589 C13.8343488,2.93811687 14.1439805,2.94452746 14.4752483,2.94452746 L15.4264158,2.94452748 L15.4264158,2.94444084 Z M5.79137853,2.94444084 L12.2632815,2.94444084 L12.2632815,1.71473202 L5.79137853,1.71473202 L5.79137853,2.94444084 Z M5.15038814,15.3056351 C5.59119971,15.3056351 5.81210549,15.0380359 5.81210549,14.5047434 L5.81210549,5.44414132 L4.529852,5.44414132 L4.529852,14.5047434 C4.529852,14.7782334 4.57421498,14.979994 4.66403182,15.109852 C4.75393954,15.2405762 4.91593711,15.3056351 5.15038814,15.3056351 L5.15038814,15.3056351 Z M9.05778407,15.2859702 C9.29214419,15.2859702 9.45114181,15.2239433 9.53377693,15.1000628 C9.61632115,14.976962 9.65750236,14.7782334 9.65750236,14.5047434 L9.65750236,5.44414132 L8.37533977,5.44414132 L8.37533977,14.5047434 C8.37533977,15.0252147 8.60360907,15.2859702 9.05778407,15.2859702 L9.05778407,15.2859702 Z M12.9457258,15.2467269 C13.1935402,15.2467269 13.3587196,15.1856529 13.4412638,15.0615992 C13.524808,14.9377187 13.5660801,14.7389901 13.5660801,14.4655001 L13.5660801,5.44414132 L12.2632815,5.44414132 L12.2632815,14.4655001 C12.2633724,14.9869244 12.4904599,15.2467269 12.9457258,15.2467269 L12.9457258,15.2467269 Z" id="形状" fill="#272636" fill-rule="nonzero"></path>
                </g>
            </g>
        </g>
    </g>
</svg>