<?xml version="1.0" encoding="UTF-8"?>
<svg width="16px" height="16px" viewBox="0 0 16 16" version="1.1" xmlns="http://www.w3.org/2000/svg" xmlns:xlink="http://www.w3.org/1999/xlink">
    <title>搜索</title>
    <defs>
        <filter id="filter-1">
            <feColorMatrix in="SourceGraphic" type="matrix" values="0 0 0 0 0.638477 0 0 0 0 0.652546 0 0 0 0 0.705305 0 0 0 1.000000 0"></feColorMatrix>
        </filter>
    </defs>
    <g id="页面-1" stroke="none" stroke-width="1" fill="none" fill-rule="evenodd">
        <g id="住户管理-楼栋" transform="translate(-30.000000, -175.000000)">
            <g id="编组备份" transform="translate(0.000000, 153.000000)">
                <g id="搜索" transform="translate(30.000000, 19.000000)" filter="url(#filter-1)">
                    <g transform="translate(0.000000, 3.000000)">
                        <path d="M15.1401216,14.268256 L12.5396689,11.6677842 L12.5385422,11.6667148 L12.5385421,11.6667149 C12.9841477,11.1391592 13.3474689,10.5472936 13.6161996,9.91116247 C13.9756861,9.06120141 14.1579693,8.15866564 14.1579693,7.22862984 C14.1579693,6.29857494 13.9756861,5.39605826 13.6161996,4.5460972 C13.2690881,3.72543132 12.7722924,2.98852595 12.1396198,2.35585333 C11.5069281,1.72318072 10.7700227,1.22636591 9.94935681,0.879254394 C9.09939575,0.519748767 8.19685998,0.337465569 7.26682417,0.337465569 C6.33676927,0.337465569 5.4342526,0.519748767 4.58429154,0.879254394 C3.76362565,1.22636591 3.02672028,1.72316163 2.39404767,2.35585333 C1.76135596,2.98852595 1.26456024,3.72545041 0.91744873,4.5460972 C0.557943103,5.39605826 0.375659905,6.29859403 0.375659905,7.22862984 C0.375659905,8.15866564 0.557943103,9.06120141 0.91744873,9.91116247 C1.26456024,10.7318475 1.76135596,11.4687528 2.39404767,12.1014254 C3.02672028,12.734098 3.76364475,13.2309129 4.58429154,13.5780053 C5.4342526,13.9374918 6.33678837,14.119775 7.26682417,14.119775 C8.19685998,14.119775 9.09939575,13.9374918 9.94935681,13.5780053 C10.5753645,13.3132411 11.1524259,12.961107 11.671871,12.5282679 C11.6730741,12.5294902 11.6742008,12.5307888 11.6754231,12.5319919 L14.2758757,15.1324637 C14.3952335,15.2518215 14.5516017,15.3114622 14.7080082,15.3114622 C14.8643764,15.3114622 15.020821,15.2517833 15.1401215,15.1324828 C15.3787607,14.8938436 15.3787607,14.5068953 15.1401215,14.2682561 L15.1401216,14.268256 Z M7.26682424,12.9416468 C5.74082073,12.9416468 4.30615934,12.3473788 3.22710774,11.2683463 C2.14805613,10.1892947 1.55380718,8.75463327 1.55380718,7.22862975 C1.55380718,5.70262624 2.14805613,4.26796485 3.22710774,3.18891325 C4.30614024,2.10986165 5.74080163,1.51561269 7.26682424,1.51561269 C8.79284685,1.51561269 10.2274891,2.10986165 11.3065407,3.18891325 C12.3855733,4.26794575 12.9798413,5.70260715 12.9798413,7.22862975 C12.9798413,8.75465236 12.3855733,10.1892947 11.3065407,11.2683463 C10.2274891,12.3473788 8.79282776,12.9416468 7.26682424,12.9416468 Z" id="形状" fill="#000000" fill-rule="nonzero"></path>
                    </g>
                </g>
            </g>
        </g>
    </g>
</svg>