<?xml version="1.0" encoding="UTF-8"?>
<svg width="18px" height="18px" viewBox="0 0 18 18" version="1.1" xmlns="http://www.w3.org/2000/svg" xmlns:xlink="http://www.w3.org/1999/xlink">
    <title>编组</title>
    <defs>
        <filter id="filter-1">
            <feColorMatrix in="SourceGraphic" type="matrix" values="0 0 0 0 0.298039 0 0 0 0 0.564706 0 0 0 0 0.960784 0 0 0 1.000000 0"></feColorMatrix>
        </filter>
    </defs>
    <g id="页面-1" stroke="none" stroke-width="1" fill="none" fill-rule="evenodd">
        <g id="住户管理-楼栋" transform="translate(-259.000000, -119.000000)">
            <g id="编组" transform="translate(259.000000, 117.000000)" filter="url(#filter-1)">
                <g transform="translate(0.000000, 2.000000)">
                    <path d="M10.2875217,8.64079768 C8.88096513,9.67198142 8.04144309,11.3677727 8.04082404,13.1790113 C8.04082404,14.7599407 8.67116138,16.1882842 9.68028331,17.1958484 L0.241373586,17.1958484 C0.253862022,12.2698577 0.526260154,8.27399502 5.2012543,7.72061009 C3.69381565,6.91125854 2.91990825,5.10179817 3.34019573,3.36858107 C3.76057713,1.63536396 5.26200632,0.444100275 6.95132542,0.503742983 C8.64055063,0.563186881 10.0640445,1.85733425 10.3744713,3.61629712 C10.684992,5.37516059 9.79934598,7.1262705 8.24430103,7.82766875 C9.04788019,7.99118917 9.72197403,8.26733491 10.2875217,8.64079768 Z M13.5048432,8.45848979 C15.8631856,8.45848979 17.783306,10.4912127 17.783306,12.9879559 C17.783306,15.4845996 15.8631856,17.5173225 13.5048432,17.5173225 C11.1464068,17.5173225 9.22628641,15.4845996 9.22628641,12.9879559 C9.22628641,10.4912127 11.1464068,8.45848979 13.5048432,8.45848979 L13.5048432,8.45848979 Z M11.754772,12.2952058 C11.5378936,12.2812293 11.3315945,12.3957817 11.2191636,12.592615 C11.1067327,12.7894482 11.1067327,13.0360645 11.2191636,13.2328978 C11.3315945,13.429731 11.5378936,13.5442834 11.754772,13.5303069 L12.9183562,13.5303069 L14.085039,13.5293129 L15.2548204,13.5293129 C15.4715295,13.5429706 15.6775324,13.4283347 15.7897836,13.231618 C15.9020349,13.0349013 15.9020349,12.7885239 15.7897836,12.5918072 C15.6775324,12.3950905 15.4715295,12.2804546 15.2548204,12.2941124 L14.085039,12.2941124 L12.9183562,12.2952058 L11.754772,12.2952058 L11.754772,12.2952058 Z" id="形状" fill="#000000" fill-rule="nonzero"></path>
                </g>
            </g>
        </g>
    </g>
</svg>